<svg xmlns="http://www.w3.org/2000/svg" width="620" height="142" viewBox="0 0 620 142" fill="none" font-family="JBMono,ui-monospace,SFMono-Regular,Menlo,Consolas,&apos;Liberation Mono&apos;,monospace">
  <style>
    .d-f{fill:#6e7681}.d-s{stroke:#6e7681}.e-f{fill:#424a53}.m-f{fill:#8c959f}.u-s{stroke:#d8dee4}.r{stroke:#ffffff}.w{fill:#6e7681;opacity:.13}
@media(prefers-color-scheme:dark){.d-f{fill:#c9d1d9}.d-s{stroke:#c9d1d9}.e-f{fill:#f0f6fc}.m-f{fill:#8b949e}.u-s{stroke:#30363d}.r{stroke:#0d1117}.w{fill:#c9d1d9;opacity:.16}}
  </style>
  <g opacity="0">
    <animate attributeName="opacity" from="0" to="1" begin="0.10s" dur="0.45s" fill="freeze"/>
    <text x="34" y="12" class="m-f" font-size="9" letter-spacing="1.3">
      BY BYTES
    </text>
  </g>
  <clipPath id="rl0">
    <rect x="116" y="20" height="110" width="0">
      <animate attributeName="width" from="0" to="152.0" begin="0.34s" dur="0.95s" fill="freeze"/>
    </rect>
  </clipPath>
  <g opacity="0">
    <animate attributeName="opacity" from="0" to="1" begin="0.24s" dur="0.45s" fill="freeze"/>
    <text x="34" y="34" class="e-f" font-size="11">
      python
    </text>
    <text x="306.0" y="34" class="m-f" font-size="11" text-anchor="end">
      62%
    </text>
  </g>
  <g clip-path="url(#rl0)">
    <path d="M116.0 26.0H265.0Q268.0 26.0 268.0 29.0V30.0Q268.0 33.0 265.0 33.0H116.0Z" class="d-f"/>
  </g>
  <g opacity="0">
    <animate attributeName="opacity" from="0" to="1" begin="0.29s" dur="0.45s" fill="freeze"/>
    <text x="34" y="56" class="e-f" font-size="11">
      javascript
    </text>
    <text x="306.0" y="56" class="m-f" font-size="11" text-anchor="end">
      20%
    </text>
  </g>
  <g clip-path="url(#rl0)">
    <path d="M116.0 48.0H161.9Q164.9 48.0 164.9 51.0V52.0Q164.9 55.0 161.9 55.0H116.0Z" class="d-f"/>
  </g>
  <g opacity="0">
    <animate attributeName="opacity" from="0" to="1" begin="0.34s" dur="0.45s" fill="freeze"/>
    <text x="34" y="78" class="e-f" font-size="11">
      typescript
    </text>
    <text x="306.0" y="78" class="m-f" font-size="11" text-anchor="end">
      8%
    </text>
  </g>
  <g clip-path="url(#rl0)">
    <path d="M116.0 70.0H133.8Q136.8 70.0 136.8 73.0V74.0Q136.8 77.0 133.8 77.0H116.0Z" class="d-f"/>
  </g>
  <g opacity="0">
    <animate attributeName="opacity" from="0" to="1" begin="0.39s" dur="0.45s" fill="freeze"/>
    <text x="34" y="100" class="e-f" font-size="11">
      kotlin
    </text>
    <text x="306.0" y="100" class="m-f" font-size="11" text-anchor="end">
      6%
    </text>
  </g>
  <g clip-path="url(#rl0)">
    <path d="M116.0 92.0H126.6Q129.6 92.0 129.6 95.0V96.0Q129.6 99.0 126.6 99.0H116.0Z" class="d-f"/>
  </g>
  <g opacity="0">
    <animate attributeName="opacity" from="0" to="1" begin="0.44s" dur="0.45s" fill="freeze"/>
    <text x="34" y="122" class="e-f" font-size="11">
      c++
    </text>
    <text x="306.0" y="122" class="m-f" font-size="11" text-anchor="end">
      4%
    </text>
  </g>
  <g clip-path="url(#rl0)">
    <path d="M116.0 114.0H123.5Q126.5 114.0 126.5 117.0V118.0Q126.5 121.0 123.5 121.0H116.0Z" class="d-f"/>
  </g>
  <rect y="20" width="2" height="110" class="d-f" opacity="0">
    <animate attributeName="x" from="116" to="268.0" begin="0.34s" dur="0.95s" fill="freeze"/>
    <set attributeName="opacity" to="0.55" begin="0.34s"/>
    <set attributeName="opacity" to="0" begin="1.29s"/>
  </rect>
  <g opacity="0">
    <animate attributeName="opacity" from="0" to="1" begin="0.20s" dur="0.45s" fill="freeze"/>
    <text x="342.0" y="12" class="m-f" font-size="9" letter-spacing="1.3">
      BY REPOS
    </text>
  </g>
  <clipPath id="rl1">
    <rect x="424.0" y="20" height="110" width="0">
      <animate attributeName="width" from="0" to="152.0" begin="0.46s" dur="0.95s" fill="freeze"/>
    </rect>
  </clipPath>
  <g opacity="0">
    <animate attributeName="opacity" from="0" to="1" begin="0.34s" dur="0.45s" fill="freeze"/>
    <text x="342.0" y="34" class="e-f" font-size="11">
      python
    </text>
    <text x="614.0" y="34" class="m-f" font-size="11" text-anchor="end">
      17
    </text>
  </g>
  <g clip-path="url(#rl1)">
    <path d="M424.0 26.0H573.0Q576.0 26.0 576.0 29.0V30.0Q576.0 33.0 573.0 33.0H424.0Z" class="d-f"/>
  </g>
  <g opacity="0">
    <animate attributeName="opacity" from="0" to="1" begin="0.39s" dur="0.45s" fill="freeze"/>
    <text x="342.0" y="56" class="e-f" font-size="11">
      c++
    </text>
    <text x="614.0" y="56" class="m-f" font-size="11" text-anchor="end">
      2
    </text>
  </g>
  <g clip-path="url(#rl1)">
    <path d="M424.0 48.0H438.9Q441.9 48.0 441.9 51.0V52.0Q441.9 55.0 438.9 55.0H424.0Z" class="d-f"/>
  </g>
  <g opacity="0">
    <animate attributeName="opacity" from="0" to="1" begin="0.44s" dur="0.45s" fill="freeze"/>
    <text x="342.0" y="78" class="e-f" font-size="11">
      javascript
    </text>
    <text x="614.0" y="78" class="m-f" font-size="11" text-anchor="end">
      2
    </text>
  </g>
  <g clip-path="url(#rl1)">
    <path d="M424.0 70.0H438.9Q441.9 70.0 441.9 73.0V74.0Q441.9 77.0 438.9 77.0H424.0Z" class="d-f"/>
  </g>
  <g opacity="0">
    <animate attributeName="opacity" from="0" to="1" begin="0.49s" dur="0.45s" fill="freeze"/>
    <text x="342.0" y="100" class="e-f" font-size="11">
      jupyter not
    </text>
    <text x="614.0" y="100" class="m-f" font-size="11" text-anchor="end">
      1
    </text>
  </g>
  <g clip-path="url(#rl1)">
    <path d="M424.0 92.0H429.9Q432.9 92.0 432.9 95.0V96.0Q432.9 99.0 429.9 99.0H424.0Z" class="d-f"/>
  </g>
  <g opacity="0">
    <animate attributeName="opacity" from="0" to="1" begin="0.54s" dur="0.45s" fill="freeze"/>
    <text x="342.0" y="122" class="e-f" font-size="11">
      kotlin
    </text>
    <text x="614.0" y="122" class="m-f" font-size="11" text-anchor="end">
      1
    </text>
  </g>
  <g clip-path="url(#rl1)">
    <path d="M424.0 114.0H429.9Q432.9 114.0 432.9 117.0V118.0Q432.9 121.0 429.9 121.0H424.0Z" class="d-f"/>
  </g>
  <rect y="20" width="2" height="110" class="d-f" opacity="0">
    <animate attributeName="x" from="424.0" to="576.0" begin="0.46s" dur="0.95s" fill="freeze"/>
    <set attributeName="opacity" to="0.55" begin="0.46s"/>
    <set attributeName="opacity" to="0" begin="1.41s"/>
  </rect>
</svg>